<svg xmlns="http://www.w3.org/2000/svg" viewBox="0 0 4858.37 688.53"><defs><style>.a{fill:#191919;}.b{fill:#0078d7;}.c{fill:#04be51;}.d{fill:#f9c70e;}.e{fill:#ef8700;}.f{fill:#ea3546;}</style></defs><title>logo-ciencias-moleculares-FINAL</title><path class="a" d="M2213.76,682.77v-185L2132.6,594.6l-81.17-96.82v185h-59.32V405.9h56l84.46,103.41,84.46-103.41h56V682.77Z"/><path class="a" d="M2618.75,544.33a133.33,133.33,0,0,1-10.92,52.53A149.72,149.72,0,0,1,2577.14,643,155,155,0,0,1,2530,676q-27.41,12.56-60.77,12.56T2408.43,676a155.08,155.08,0,0,1-47.18-33,149.72,149.72,0,0,1-30.69-46.15,131.81,131.81,0,0,1,0-105.06,149.8,149.8,0,0,1,30.69-46.14,154.91,154.91,0,0,1,47.18-33q27.39-12.57,60.77-12.57T2530,412.7a154.86,154.86,0,0,1,47.17,33,149.8,149.8,0,0,1,30.69,46.14A133.41,133.41,0,0,1,2618.75,544.33Zm-63,0a91.52,91.52,0,0,0-6.59-35,88.26,88.26,0,0,0-18.13-28,83.22,83.22,0,0,0-27.4-18.75,90.44,90.44,0,0,0-68.81,0,83,83,0,0,0-27.39,18.75,87.74,87.74,0,0,0-18.13,28,96.35,96.35,0,0,0,0,70,87.57,87.57,0,0,0,18.13,28,83.12,83.12,0,0,0,27.39,18.75,90.56,90.56,0,0,0,68.81,0,83.37,83.37,0,0,0,27.4-18.75,88.08,88.08,0,0,0,18.13-28A91.44,91.44,0,0,0,2555.72,544.33Z"/><path class="a" d="M2665.31,682.77V405.9h59.33V627.56h120.71v55.21Z"/><path class="a" d="M2882.43,682.77V405.9h186.22v55.21H2941.76V513H3032v55.21h-90.23v59.33h126.89v55.21Z"/><path class="a" d="M3348,486.65a217,217,0,0,0-44.91-22.86,126.89,126.89,0,0,0-43.26-8q-21,0-37.9,7.63a90,90,0,0,0-28.64,20,89.92,89.92,0,0,0-24.51,61q0,20.19,7.62,36.47a87.8,87.8,0,0,0,20.19,27.81,91.28,91.28,0,0,0,29,17.92,94.89,94.89,0,0,0,34.61,6.38,113,113,0,0,0,45.94-9.68,156.83,156.83,0,0,0,41.41-27v66.33a187.13,187.13,0,0,1-45.32,18.95q-25.14,7-46.56,7A147.86,147.86,0,0,1,3197.81,677,153.47,153.47,0,0,1,3150,645.69a150.55,150.55,0,0,1-32.34-45.94,131.76,131.76,0,0,1-11.95-55.42,137,137,0,0,1,11.95-57.26,143.14,143.14,0,0,1,32.55-45.74,151,151,0,0,1,48-30.28,155,155,0,0,1,57.88-10.92,187.06,187.06,0,0,1,24.1,1.65,235.73,235.73,0,0,1,47.59,11.33,177.75,177.75,0,0,1,20.19,8.45Z"/><path class="a" d="M3649.57,557.93a139.45,139.45,0,0,1-9.48,51.91,121.77,121.77,0,0,1-26.57,41.2,119.87,119.87,0,0,1-41.2,27q-24.11,9.68-52.94,9.68-29.27,0-53.15-9.68a120.26,120.26,0,0,1-41-27,121.47,121.47,0,0,1-26.57-41.2,139.45,139.45,0,0,1-9.48-51.91v-152h59.33V559.58q0,18.95,5.56,32.75a62.94,62.94,0,0,0,15.25,22.87,61.19,61.19,0,0,0,22.45,13.39,90.36,90.36,0,0,0,55.21,0,61.27,61.27,0,0,0,22.45-13.39,63.07,63.07,0,0,0,15.25-22.87q5.57-13.8,5.56-32.75V405.9h59.33Z"/><path class="a" d="M3702.3,682.77V405.9h59.33V627.56h120.71v55.21Z"/><path class="a" d="M4101.11,682.77l-20.19-56.86H3977.51l-20.19,56.86h-63L4001.82,405.9h54.8l107.53,276.87Zm-71.69-200.65-33.37,92.7h66.33Z"/><path class="a" d="M4348.31,682.77,4275,578.94h-21.84V682.77h-59.33V405.9h91.47q28.83,0,46.76,9.68t28,23.28a77.77,77.77,0,0,1,13.6,28.22q3.49,14.64,3.5,24.52,0,26.37-12.77,43.88a100.88,100.88,0,0,1-31.31,28.22l89.81,119.07Zm-30.49-189.94q0-14.41-9.88-23.07t-28.43-8.65h-26.37v64.68h25.54q21.42,0,30.29-9.88A33.53,33.53,0,0,0,4317.82,492.83Z"/><path class="a" d="M4451.31,682.77V405.9h186.23v55.21h-126.9V513h90.23v55.21h-90.23v59.33h126.9v55.21Z"/><path class="a" d="M4858.37,597.07a93.42,93.42,0,0,1-6,32.34,89.38,89.38,0,0,1-17.92,29.46,91.6,91.6,0,0,1-29.66,21.42q-17.73,8.25-41.2,8.24-19.78,0-35-6a95.09,95.09,0,0,1-26.77-15.66A111.15,111.15,0,0,1,4682,645.48a152,152,0,0,1-13.6-23.28l52.33-27.6a90.53,90.53,0,0,0,4.74,13.8,50.08,50.08,0,0,0,8,13,41.69,41.69,0,0,0,12.36,9.68Q4753.3,635,4764,635q12.36,0,22.45-8.85t10.1-22.87a25.54,25.54,0,0,0-8.66-19.78,106.23,106.23,0,0,0-21.42-14.62q-12.78-6.79-28-13.8a149.18,149.18,0,0,1-28-16.69A86.25,86.25,0,0,1,4689,514.67q-8.64-14-8.65-35a72.49,72.49,0,0,1,6.39-29.66,80.34,80.34,0,0,1,17.92-25.55,88.59,88.59,0,0,1,27-17.71,85.72,85.72,0,0,1,34-6.6,93.79,93.79,0,0,1,47,12.36q21.84,12.36,36.67,36.67l-49.44,27.61a52.32,52.32,0,0,0-14-16.07,32.4,32.4,0,0,0-20.18-6.59q-12,0-18.54,6a19.87,19.87,0,0,0-6.6,15.45q0,9.06,8.66,15.45A120.45,120.45,0,0,0,4771,503.34q13.18,6,28.43,13a137.86,137.86,0,0,1,28.43,17.51,88,88,0,0,1,21.83,25.75Q4858.37,574.82,4858.37,597.07Z"/><path class="a" d="M248.44,659.69A236.07,236.07,0,0,1,198,679.88a196.29,196.29,0,0,1-52.12,7.42,153.62,153.62,0,0,1-57.06-10.51,142.85,142.85,0,0,1-46.35-29.25,134.36,134.36,0,0,1-31.11-45.11Q0,576.06,0,544.33a139,139,0,0,1,43.26-102,148.27,148.27,0,0,1,47.38-30.07,154.41,154.41,0,0,1,58.09-10.92,219,219,0,0,1,25.75,1.44,190.42,190.42,0,0,1,24.31,4.53,210.36,210.36,0,0,1,24.31,7.83q12.15,4.74,25.34,11.33v27.19a243,243,0,0,0-45.12-19.77q-24.1-7.83-54.59-7.83-29.25,0-51.91,10.92A124.73,124.73,0,0,0,58.5,465a122,122,0,0,0-23.89,38.11,112.28,112.28,0,0,0-8.24,41.2,117.31,117.31,0,0,0,8.86,45.32,119.7,119.7,0,0,0,24.51,37.7,113.92,113.92,0,0,0,37.7,25.75q22,9.48,48.41,9.48a170.24,170.24,0,0,0,56.85-9.27q26.37-9.27,45.74-21.22Z"/><path class="a" d="M316.82,682.77V405.9h26.37V682.77Z"/><path class="a" d="M426,682.77V405.9H590.8v23.9H452.37v94.76h110v23.89h-110V658.87H594.92v23.9ZM534.77,382.83l-28.84-33-27.6,33H450.72l42.44-50.26h26.78l42.43,50.26Z"/><path class="a" d="M875.08,682.77,690.51,448.34V682.77H664.14V405.9h26.37L875.08,640.33V405.9h26.37V682.77Z"/><path class="a" d="M1224.45,659.69A235.66,235.66,0,0,1,1174,679.88a196.16,196.16,0,0,1-52.11,7.42,153.71,153.71,0,0,1-57.07-10.51,143.06,143.06,0,0,1-46.35-29.25,134.48,134.48,0,0,1-31.1-45.11Q976,576.06,976,544.33a138.93,138.93,0,0,1,43.26-102,148.27,148.27,0,0,1,47.38-30.07,154.41,154.41,0,0,1,58.09-10.92,219.22,219.22,0,0,1,25.75,1.44,190.74,190.74,0,0,1,24.31,4.53,210.36,210.36,0,0,1,24.31,7.83q12.14,4.74,25.33,11.33v27.19a242.94,242.94,0,0,0-45.11-19.77q-24.1-7.83-54.59-7.83-29.26,0-51.91,10.92a124.73,124.73,0,0,0-38.32,28,122,122,0,0,0-23.89,38.11,112.28,112.28,0,0,0-8.24,41.2,117.3,117.3,0,0,0,8.85,45.32,119.9,119.9,0,0,0,24.52,37.7,113.82,113.82,0,0,0,37.7,25.75q22,9.48,48.41,9.48a170.24,170.24,0,0,0,56.85-9.27q26.37-9.27,45.73-21.22Z"/><path class="a" d="M1292.84,682.77V405.9h26.37V682.77Z"/><path class="a" d="M1604.72,682.77l-35.84-84.46H1438.69l-35.85,84.46h-25.95l117-276.87h19.78l117,276.87Zm-100.94-239-55.21,130.6H1559Z"/><path class="a" d="M1840.79,607a77.88,77.88,0,0,1-6.59,32.34,79.32,79.32,0,0,1-17.92,25.34,81.89,81.89,0,0,1-26.37,16.68,85.77,85.77,0,0,1-31.93,6q-17.3,0-30.07-4.33a77.36,77.36,0,0,1-22.46-11.74,79.55,79.55,0,0,1-16.68-17.3,128.59,128.59,0,0,1-12-20.6l21.42-11.54q9.06,19,23.28,30.49t37.29,11.53q13.59,0,23.89-4.94a52.29,52.29,0,0,0,17.1-12.77,54.72,54.72,0,0,0,10.3-17.72,59,59,0,0,0,3.5-19.77,42.39,42.39,0,0,0-9.06-26.58,125.12,125.12,0,0,0-22.66-22.25,326.71,326.71,0,0,0-29.46-20.18,245.48,245.48,0,0,1-29.46-21,119.2,119.2,0,0,1-22.66-24.72,53.44,53.44,0,0,1-9.06-30.69,59.25,59.25,0,0,1,4.74-23.48,58.17,58.17,0,0,1,13.59-19.57,67.26,67.26,0,0,1,21.84-13.6,79.4,79.4,0,0,1,29.46-5.15q14.42,0,31.51,7.42T1823.49,436l-19,15.24a57.64,57.64,0,0,0-18.75-19,48,48,0,0,0-26.16-7.42q-18.54,0-29.87,10.92a35.5,35.5,0,0,0-11.33,26.58q0,12.76,9.06,23.48a128,128,0,0,0,22.66,20.6q13.61,9.88,29.46,20a240.16,240.16,0,0,1,29.46,22,122.67,122.67,0,0,1,22.66,26.17A58.84,58.84,0,0,1,1840.79,607Z"/><circle class="b" cx="1696.65" cy="144" r="144"/><circle class="c" cx="1546.09" cy="144" r="144"/><circle class="d" cx="1155.94" cy="144" r="144"/><circle class="e" cx="687.98" cy="144" r="144"/><circle class="f" cx="145.24" cy="144" r="144"/></svg>